<svg width="21" height="15" viewBox="0 0 21 15" fill="none" xmlns="http://www.w3.org/2000/svg">
<path d="M20.6063 10.9935H20.2617V8.37432C20.2617 8.00672 20.1353 7.69656 19.8826 7.44384C19.6299 7.19111 19.3197 7.06475 18.9521 7.06475V1.61969C18.9521 1.25209 18.8258 0.941925 18.573 0.6892C18.3203 0.436476 18.0101 0.310114 17.6425 0.310114H4.13327C3.76567 0.310114 3.45551 0.436476 3.20278 0.6892C2.95006 0.941925 2.8237 1.25209 2.8237 1.61969V7.06475C2.4561 7.06475 2.14593 7.19111 1.89321 7.44384C1.64048 7.69656 1.51412 8.00672 1.51412 8.37432V10.9935H1.1695C1.0776 10.9935 1.00867 11.0164 0.962724 11.0624C0.916774 11.1083 0.893799 11.1773 0.893799 11.2692V12.5787C0.893799 12.6706 0.916774 12.7511 0.962724 12.82C1.00867 12.8889 1.0776 12.9234 1.1695 12.9234H1.51412V14.164C1.51412 14.2559 1.54859 14.3363 1.61751 14.4052C1.68643 14.4742 1.76685 14.5086 1.85875 14.5086H2.8237C3.00749 14.5086 3.09939 14.4167 3.09939 14.2329L3.37509 12.9234H18.4007L18.6764 14.2329C18.6764 14.4167 18.7683 14.5086 18.9521 14.5086H19.9171C20.009 14.5086 20.0894 14.4742 20.1583 14.4052C20.2272 14.3363 20.2617 14.2559 20.2617 14.164V12.9234H20.6063C20.6982 12.9234 20.7671 12.8889 20.8131 12.82C20.859 12.7511 20.882 12.6706 20.882 12.5787V11.2692C20.882 11.1773 20.859 11.1083 20.8131 11.0624C20.7671 11.0164 20.6982 10.9935 20.6063 10.9935ZM3.44402 1.61969C3.44402 1.43589 3.51294 1.27506 3.65079 1.13721C3.78864 0.999363 3.94947 0.930438 4.13327 0.930438H17.6425C17.8263 0.930438 17.9872 0.999363 18.125 1.13721C18.2629 1.27506 18.3318 1.43589 18.3318 1.61969V7.06475H17.6425V5.8241C17.6425 5.4565 17.5162 5.14634 17.2635 4.89362C17.0107 4.64089 16.7235 4.51453 16.4019 4.51453H12.4732C12.1515 4.51453 11.8643 4.64089 11.6116 4.89362C11.3589 5.14634 11.2325 5.4565 11.2325 5.8241V7.06475H10.5433V5.8241C10.5433 5.4565 10.4169 5.14634 10.1642 4.89362C9.91147 4.64089 9.62428 4.51453 9.30263 4.51453H5.37392C5.05227 4.51453 4.76508 4.64089 4.51235 4.89362C4.25963 5.14634 4.13327 5.4565 4.13327 5.8241V7.06475H3.44402V1.61969ZM17.0222 5.8241V7.06475H11.8529V5.8241C11.8529 5.6403 11.9218 5.47948 12.0596 5.34163C12.1975 5.20378 12.3353 5.13485 12.4732 5.13485H16.4019C16.5857 5.13485 16.735 5.20378 16.8499 5.34163C16.9648 5.47948 17.0222 5.6403 17.0222 5.8241ZM9.92296 5.8241V7.06475H4.75359V5.8241C4.75359 5.6403 4.81103 5.47948 4.9259 5.34163C5.04078 5.20378 5.19012 5.13485 5.37392 5.13485H9.30263C9.44048 5.13485 9.57833 5.20378 9.71618 5.34163C9.85403 5.47948 9.92296 5.6403 9.92296 5.8241ZM2.13445 8.37432C2.13445 8.19052 2.20337 8.04119 2.34122 7.92631C2.47907 7.81144 2.6399 7.754 2.8237 7.754H18.9521C19.1359 7.754 19.2967 7.81144 19.4346 7.92631C19.5724 8.04119 19.6414 8.19052 19.6414 8.37432V10.9935H2.13445V8.37432ZM2.548 13.8883H2.13445V12.9234H2.75477L2.548 13.8883ZM19.6414 13.8883H19.2278L19.021 12.9234H19.6414V13.8883ZM20.2617 12.2341H1.51412V11.6138H20.2617V12.2341Z" fill="#696969"/>
</svg>
