<svg width="216" height="48" viewBox="0 0 216 48" fill="none" xmlns="http://www.w3.org/2000/svg">
<ellipse cx="23.6066" cy="23.6065" rx="23.6066" ry="23.6065" fill="#4BA586"/>
<path d="M69.3183 22.9935C70.3758 23.1823 71.2729 23.7394 72.0094 24.6648C72.7459 25.5902 73.1142 26.6383 73.1142 27.8092C73.1142 28.8101 72.8498 29.7166 72.321 30.5287C71.8111 31.3219 71.0652 31.9545 70.0831 32.4266C69.1011 32.8799 67.9585 33.1065 66.6555 33.1065H58.7803V13.4187H66.2872C67.628 13.4187 68.78 13.6453 69.7432 14.0985C70.7063 14.5518 71.4334 15.1655 71.9244 15.9398C72.4155 16.6952 72.661 17.5451 72.661 18.4893C72.661 19.6225 72.3588 20.5667 71.7545 21.3221C71.1501 22.0775 70.3381 22.6346 69.3183 22.9935ZM62.0097 21.6904H66.0039C67.0615 21.6904 67.883 21.4543 68.4684 20.9822C69.0728 20.4912 69.3749 19.7924 69.3749 18.8859C69.3749 17.9983 69.0728 17.309 68.4684 16.818C67.883 16.3081 67.0615 16.0531 66.0039 16.0531H62.0097V21.6904ZM66.3722 30.472C67.4675 30.472 68.3268 30.2076 68.95 29.6788C69.5732 29.1501 69.8848 28.4135 69.8848 27.4693C69.8848 26.5061 69.5543 25.7413 68.8934 25.1747C68.2324 24.6082 67.3542 24.3249 66.2589 24.3249H62.0097V30.472H66.3722ZM91.5193 24.9198C91.5193 25.5052 91.4815 26.034 91.406 26.5061H79.4799C79.5744 27.7525 80.037 28.7535 80.868 29.5089C81.6989 30.2643 82.7187 30.642 83.9274 30.642C85.6648 30.642 86.8924 29.9149 87.61 28.4607H91.0943C90.6222 29.896 89.7629 31.0763 88.5165 32.0017C87.289 32.9082 85.7593 33.3615 83.9274 33.3615C82.4355 33.3615 81.0946 33.031 79.9048 32.37C78.734 31.6901 77.8086 30.7459 77.1287 29.5372C76.4677 28.3097 76.1372 26.8933 76.1372 25.288C76.1372 23.6828 76.4583 22.2758 77.1004 21.0672C77.7614 19.8396 78.6773 18.8954 79.8482 18.2344C81.038 17.5734 82.3977 17.2429 83.9274 17.2429C85.4004 17.2429 86.713 17.564 87.865 18.2061C89.017 18.8482 89.914 19.7547 90.5561 20.9255C91.1982 22.0775 91.5193 23.4089 91.5193 24.9198ZM88.1482 23.9C88.1294 22.7102 87.7044 21.7565 86.8735 21.0388C86.0425 20.3212 85.0133 19.9624 83.7858 19.9624C82.6715 19.9624 81.7178 20.3212 80.9247 21.0388C80.1315 21.7376 79.6593 22.6913 79.5083 23.9H88.1482ZM99.0551 20.1324V28.7723C99.0551 29.3578 99.1873 29.7827 99.4516 30.0471C99.7349 30.2926 100.207 30.4154 100.868 30.4154H102.851V33.1065H100.301C98.8473 33.1065 97.7331 32.7666 96.9588 32.0867C96.1845 31.4068 95.7974 30.3021 95.7974 28.7723V20.1324H93.956V17.4979H95.7974V13.617H99.0551V17.4979H102.851V20.1324H99.0551ZM105.341 25.2314C105.341 23.6639 105.662 22.2758 106.304 21.0672C106.965 19.8585 107.853 18.9237 108.967 18.2627C110.1 17.5829 111.347 17.2429 112.706 17.2429C113.934 17.2429 115.001 17.4884 115.907 17.9794C116.833 18.4516 117.569 19.0465 118.117 19.7641V17.4979H121.375V33.1065H118.117V30.7836C117.569 31.5201 116.823 32.1339 115.879 32.6249C114.935 33.1159 113.858 33.3615 112.65 33.3615C111.309 33.3615 110.081 33.0215 108.967 32.3417C107.853 31.6429 106.965 30.6798 106.304 29.4522C105.662 28.2058 105.341 26.7988 105.341 25.2314ZM118.117 25.288C118.117 24.2116 117.89 23.2767 117.437 22.4836C117.003 21.6904 116.427 21.0861 115.709 20.6706C114.991 20.2551 114.217 20.0474 113.386 20.0474C112.555 20.0474 111.781 20.2551 111.063 20.6706C110.346 21.0672 109.76 21.6621 109.307 22.4552C108.873 23.2295 108.655 24.1549 108.655 25.2314C108.655 26.3078 108.873 27.2521 109.307 28.0642C109.76 28.8762 110.346 29.4994 111.063 29.9338C111.8 30.3493 112.574 30.557 113.386 30.557C114.217 30.557 114.991 30.3493 115.709 29.9338C116.427 29.5183 117.003 28.914 117.437 28.1208C117.89 27.3087 118.117 26.3645 118.117 25.288ZM141.928 13.4187V33.1065H138.699V24.4948H129.436V33.1065H126.206V13.4187H129.436V21.8604H138.699V13.4187H141.928ZM153.54 33.3615C152.067 33.3615 150.736 33.031 149.546 32.37C148.356 31.6901 147.422 30.7459 146.742 29.5372C146.062 28.3097 145.722 26.8933 145.722 25.288C145.722 23.7017 146.071 22.2947 146.77 21.0672C147.469 19.8396 148.422 18.8954 149.631 18.2344C150.84 17.5734 152.19 17.2429 153.682 17.2429C155.174 17.2429 156.524 17.5734 157.733 18.2344C158.942 18.8954 159.895 19.8396 160.594 21.0672C161.293 22.2947 161.642 23.7017 161.642 25.288C161.642 26.8744 161.283 28.2813 160.566 29.5089C159.848 30.7364 158.866 31.6901 157.62 32.37C156.392 33.031 155.032 33.3615 153.54 33.3615ZM153.54 30.557C154.371 30.557 155.146 30.3587 155.863 29.9621C156.6 29.5655 157.195 28.9706 157.648 28.1775C158.101 27.3843 158.328 26.4211 158.328 25.288C158.328 24.1549 158.111 23.2012 157.676 22.4269C157.242 21.6337 156.666 21.0388 155.948 20.6423C155.231 20.2457 154.456 20.0474 153.625 20.0474C152.794 20.0474 152.02 20.2457 151.302 20.6423C150.604 21.0388 150.047 21.6337 149.631 22.4269C149.216 23.2012 149.008 24.1549 149.008 25.288C149.008 26.9688 149.433 28.2719 150.283 29.1973C151.151 30.1038 152.237 30.557 153.54 30.557ZM179.56 17.4979V33.1065H176.331V31.2652C175.821 31.9073 175.151 32.4172 174.32 32.7949C173.508 33.1537 172.639 33.3331 171.713 33.3331C170.486 33.3331 169.381 33.0782 168.399 32.5683C167.436 32.0584 166.671 31.303 166.105 30.3021C165.557 29.3011 165.283 28.0925 165.283 26.6761V17.4979H168.484V26.1945C168.484 27.592 168.833 28.6685 169.532 29.4239C170.231 30.1604 171.185 30.5287 172.393 30.5287C173.602 30.5287 174.556 30.1604 175.254 29.4239C175.972 28.6685 176.331 27.592 176.331 26.1945V17.4979H179.56ZM190.077 33.3615C188.849 33.3615 187.745 33.1443 186.763 32.7099C185.799 32.2567 185.035 31.6523 184.468 30.8969C183.901 30.1226 183.599 29.2634 183.561 28.3191H186.904C186.961 28.9801 187.272 29.5372 187.839 29.9904C188.424 30.4248 189.152 30.642 190.02 30.642C190.927 30.642 191.625 30.472 192.117 30.1321C192.626 29.7733 192.881 29.32 192.881 28.7723C192.881 28.1869 192.598 27.7525 192.032 27.4693C191.484 27.186 190.606 26.8744 189.397 26.5344C188.226 26.2134 187.272 25.9018 186.536 25.5996C185.799 25.2975 185.157 24.8348 184.61 24.2116C184.081 23.5884 183.816 22.7668 183.816 21.747C183.816 20.9161 184.062 20.1607 184.553 19.4808C185.044 18.7821 185.743 18.2344 186.649 17.8378C187.575 17.4412 188.632 17.2429 189.822 17.2429C191.597 17.2429 193.023 17.6962 194.099 18.6027C195.195 19.4903 195.78 20.7084 195.856 22.2569H192.626C192.57 21.5582 192.286 21.0011 191.777 20.5856C191.267 20.1701 190.577 19.9624 189.709 19.9624C188.859 19.9624 188.207 20.1229 187.754 20.444C187.301 20.765 187.074 21.1899 187.074 21.7187C187.074 22.1342 187.225 22.4836 187.527 22.7668C187.83 23.0501 188.198 23.2767 188.632 23.4467C189.067 23.5978 189.709 23.7961 190.558 24.0416C191.692 24.3438 192.617 24.6554 193.335 24.9764C194.071 25.2786 194.704 25.7318 195.233 26.3362C195.761 26.9405 196.035 27.7431 196.054 28.744C196.054 29.6316 195.809 30.4248 195.318 31.1236C194.827 31.8223 194.128 32.37 193.221 32.7666C192.334 33.1632 191.286 33.3615 190.077 33.3615ZM214.439 24.9198C214.439 25.5052 214.401 26.034 214.326 26.5061H202.4C202.494 27.7525 202.957 28.7535 203.788 29.5089C204.619 30.2643 205.639 30.642 206.847 30.642C208.585 30.642 209.812 29.9149 210.53 28.4607H214.014C213.542 29.896 212.683 31.0763 211.436 32.0017C210.209 32.9082 208.679 33.3615 206.847 33.3615C205.355 33.3615 204.015 33.031 202.825 32.37C201.654 31.6901 200.729 30.7459 200.049 29.5372C199.388 28.3097 199.057 26.8933 199.057 25.288C199.057 23.6828 199.378 22.2758 200.02 21.0672C200.681 19.8396 201.597 18.8954 202.768 18.2344C203.958 17.5734 205.318 17.2429 206.847 17.2429C208.32 17.2429 209.633 17.564 210.785 18.2061C211.937 18.8482 212.834 19.7547 213.476 20.9255C214.118 22.0775 214.439 23.4089 214.439 24.9198ZM211.068 23.9C211.049 22.7102 210.624 21.7565 209.793 21.0388C208.962 20.3212 207.933 19.9624 206.706 19.9624C205.591 19.9624 204.638 20.3212 203.845 21.0388C203.051 21.7376 202.579 22.6913 202.428 23.9H211.068Z" fill="white"/>
<path d="M18.5784 23.0426C19.5384 23.2472 20.3095 23.7272 20.8918 24.4826C21.4741 25.2223 21.7652 26.0721 21.7652 27.0321C21.7652 28.4171 21.2774 29.5187 20.3016 30.3371C19.3416 31.1397 17.9961 31.541 16.2649 31.541H8.54558V14.9692H16.0052C17.6892 14.9692 19.0033 15.3548 19.9475 16.1259C20.9075 16.8971 21.3875 17.9436 21.3875 19.2656C21.3875 20.2413 21.1279 21.0518 20.6085 21.6971C20.1049 22.3423 19.4282 22.7908 18.5784 23.0426ZM12.5823 21.6735H15.2262C15.8872 21.6735 16.3908 21.5318 16.737 21.2485C17.099 20.9495 17.28 20.5167 17.28 19.9502C17.28 19.3836 17.099 18.9508 16.737 18.6518C16.3908 18.3528 15.8872 18.2033 15.2262 18.2033H12.5823V21.6735ZM15.5567 28.2833C16.2334 28.2833 16.7528 28.1338 17.1147 27.8348C17.4925 27.52 17.6813 27.0715 17.6813 26.4892C17.6813 25.9069 17.4846 25.4505 17.0911 25.12C16.7134 24.7895 16.1862 24.6243 15.5095 24.6243H12.5823V28.2833H15.5567ZM39.0495 14.9692V31.541H35.0127V24.7187H28.7334V31.541H24.6967V14.9692H28.7334V21.461H35.0127V14.9692H39.0495Z" fill="#FEFEFF"/>
</svg>
