<svg width="31" height="18" viewBox="0 0 31 18" fill="none" xmlns="http://www.w3.org/2000/svg">
<path d="M10.284 8.69293C11.244 8.89752 12.0151 9.37752 12.5974 10.1329C13.1797 10.8726 13.4709 11.7224 13.4709 12.6824C13.4709 14.0674 12.983 15.169 12.0073 15.9874C11.0473 16.79 9.70168 17.1913 7.97054 17.1913H0.251203V0.619499H7.71087C9.3948 0.619499 10.7089 1.00507 11.6532 1.77622C12.6132 2.54737 13.0932 3.59392 13.0932 4.91589C13.0932 5.89162 12.8335 6.70211 12.3141 7.34736C11.8105 7.99261 11.1338 8.44113 10.284 8.69293ZM4.28792 7.32375H6.93185C7.59283 7.32375 8.09644 7.18211 8.44267 6.89884C8.80464 6.59982 8.98562 6.16703 8.98562 5.60048C8.98562 5.03392 8.80464 4.60113 8.44267 4.30212C8.09644 4.0031 7.59283 3.85359 6.93185 3.85359H4.28792V7.32375ZM7.26234 13.9336C7.93906 13.9336 8.45841 13.7841 8.82037 13.4851C9.19808 13.1703 9.38693 12.7218 9.38693 12.1395C9.38693 11.5572 9.19021 11.1008 8.79677 10.7703C8.41906 10.4398 7.89185 10.2746 7.21513 10.2746H4.28792V13.9336H7.26234ZM30.7551 0.619499V17.1913H26.7184V10.369H20.439V17.1913H16.4023V0.619499H20.439V7.1113H26.7184V0.619499H30.7551Z" fill="#FEFEFF"/>
</svg>
