<svg width="15" height="12" viewBox="0 0 15 12" fill="none" xmlns="http://www.w3.org/2000/svg">
<path d="M15.0092 3.94077V10.587C15.0092 10.9553 14.8781 11.2706 14.6158 11.5329C14.3535 11.7951 14.0382 11.9263 13.6699 11.9263H1.3485C0.980198 11.9263 0.664908 11.7951 0.402631 11.5329C0.140355 11.2706 0.00921631 10.9553 0.00921631 10.587V3.94077C0.254752 4.21421 0.53656 4.45695 0.85464 4.66901C2.87473 6.04178 4.26145 7.00439 5.0148 7.55685C5.33288 7.79122 5.59097 7.97398 5.78907 8.10512C5.98717 8.23626 6.25085 8.37018 6.58009 8.5069C6.90933 8.64362 7.21625 8.71198 7.50085 8.71198H7.50922H7.51759C7.80218 8.71198 8.1091 8.64362 8.43835 8.5069C8.76759 8.37018 9.03126 8.23626 9.22936 8.10512C9.42746 7.97398 9.68556 7.79122 10.0036 7.55685C10.9523 6.87046 12.3418 5.90785 14.1722 4.66901C14.4902 4.45137 14.7693 4.20863 15.0092 3.94077ZM15.0092 1.47983C15.0092 1.92068 14.8725 2.342 14.5991 2.74378C14.3256 3.14557 13.9852 3.48876 13.5779 3.77336C11.4796 5.22984 10.1738 6.13664 9.66044 6.49379C9.60464 6.53285 9.48606 6.61795 9.3047 6.74909C9.12333 6.88023 8.97266 6.98625 8.85269 7.06717C8.73271 7.14808 8.58762 7.23877 8.41742 7.33921C8.24722 7.43966 8.08678 7.51499 7.93611 7.56522C7.78544 7.61544 7.64593 7.64055 7.51759 7.64055H7.50922H7.50085C7.3725 7.64055 7.23299 7.61544 7.08232 7.56522C6.93165 7.51499 6.77121 7.43966 6.60101 7.33921C6.43081 7.23877 6.28572 7.14808 6.16575 7.06717C6.04577 6.98625 5.8951 6.88023 5.71374 6.74909C5.53237 6.61795 5.41379 6.53285 5.35799 6.49379C4.85018 6.13664 4.11915 5.62744 3.16491 4.96616C2.21067 4.30489 1.63868 3.90729 1.44895 3.77336C1.10297 3.53899 0.776515 3.21672 0.469596 2.80656C0.162676 2.39641 0.00921631 2.01555 0.00921631 1.66398C0.00921631 1.22872 0.125009 0.865993 0.356594 0.575813C0.588178 0.285635 0.918814 0.140545 1.3485 0.140545H13.6699C14.0327 0.140545 14.3465 0.271684 14.6116 0.53396C14.8767 0.796238 15.0092 1.11153 15.0092 1.47983Z" fill="white" fill-opacity="0.85"/>
</svg>
