<svg width="22" height="23" viewBox="0 0 22 23" fill="none" xmlns="http://www.w3.org/2000/svg">
<path d="M21.7861 9.74568H20.9V9.70002H11V14.1H17.2167C16.3097 16.6614 13.8727 18.5 11 18.5C7.35515 18.5 4.4 15.5449 4.4 11.9C4.4 8.25517 7.35515 5.30002 11 5.30002C12.6825 5.30002 14.2131 5.93472 15.3786 6.97147L18.4899 3.86012C16.5253 2.02917 13.8974 0.900024 11 0.900024C4.92525 0.900024 0 5.82527 0 11.9C0 17.9748 4.92525 22.9 11 22.9C17.0748 22.9 22 17.9748 22 11.9C22 11.1625 21.9241 10.4425 21.7861 9.74568Z" fill="#FFC107"/>
<path d="M1.26801 6.78007L4.88205 9.43052C5.85995 7.00942 8.22825 5.30002 10.9997 5.30002C12.6822 5.30002 14.2128 5.93472 15.3783 6.97147L18.4896 3.86012C16.525 2.02917 13.8971 0.900024 10.9997 0.900024C6.7746 0.900024 3.11051 3.28537 1.26801 6.78007Z" fill="#FF3D00"/>
<path d="M11 22.9C13.8413 22.9 16.423 21.8126 18.375 20.0444L14.9705 17.1635C13.8661 18 12.4933 18.5 11 18.5C8.13893 18.5 5.70957 16.6756 4.79437 14.1297L1.20728 16.8934C3.02778 20.4558 6.72487 22.9 11 22.9Z" fill="#4CAF50"/>
<path d="M21.786 9.74566H20.9V9.70001H11V14.1H17.2167C16.7811 15.3304 15.9896 16.3913 14.9688 17.1641C14.9693 17.1635 14.9699 17.1635 14.9704 17.163L18.375 20.0439C18.1341 20.2628 22 17.4 22 11.9C22 11.1625 21.9241 10.4425 21.786 9.74566Z" fill="#1976D2"/>
</svg>
