<svg width="43" height="42" viewBox="0 0 43 42" fill="none" xmlns="http://www.w3.org/2000/svg">
<rect x="0.801514" y="0.631775" width="41.3549" height="41.3549" rx="9.18998" fill="#878787" fill-opacity="0.7"/>
<g clip-path="url(#clip0_3483_63)">
<path d="M27.3265 23.8119C27.3265 23.5555 27.2367 23.3376 27.0573 23.1581L25.0572 21.158C24.8777 20.9785 24.6598 20.8888 24.4033 20.8888C24.1341 20.8888 23.9033 20.9913 23.711 21.1965C23.7302 21.2157 23.7911 21.275 23.8937 21.3744C23.9963 21.4737 24.0652 21.5426 24.1004 21.5811C24.1357 21.6196 24.1838 21.6805 24.2447 21.7638C24.3056 21.8471 24.3473 21.9289 24.3697 22.009C24.3921 22.0891 24.4033 22.1773 24.4033 22.2734C24.4033 22.5298 24.3136 22.7478 24.1341 22.9273C23.9546 23.1068 23.7367 23.1965 23.4802 23.1965C23.3841 23.1965 23.2959 23.1853 23.2158 23.1629C23.1357 23.1404 23.0539 23.0988 22.9706 23.0379C22.8873 22.977 22.8264 22.9289 22.7879 22.8936C22.7495 22.8584 22.6805 22.7895 22.5812 22.6869C22.4818 22.5843 22.4225 22.5234 22.4033 22.5042C22.1917 22.7029 22.086 22.9369 22.086 23.2061C22.086 23.4626 22.1757 23.6805 22.3552 23.86L24.336 25.8504C24.5091 26.0235 24.7271 26.1101 24.9899 26.1101C25.2463 26.1101 25.4643 26.0267 25.6438 25.8601L27.0573 24.4562C27.2367 24.2767 27.3265 24.0619 27.3265 23.8119ZM20.5667 17.0329C20.5667 16.7765 20.477 16.5585 20.2975 16.379L18.3166 14.3886C18.1372 14.2091 17.9192 14.1194 17.6628 14.1194C17.4128 14.1194 17.1948 14.2059 17.0089 14.379L15.5954 15.7829C15.4159 15.9624 15.3262 16.1771 15.3262 16.4271C15.3262 16.6835 15.4159 16.9015 15.5954 17.081L17.5955 19.081C17.7686 19.2541 17.9865 19.3407 18.2493 19.3407C18.5186 19.3407 18.7493 19.2413 18.9417 19.0426C18.9224 19.0233 18.8615 18.964 18.759 18.8647C18.6564 18.7653 18.5875 18.6964 18.5522 18.6579C18.517 18.6195 18.4689 18.5586 18.408 18.4752C18.3471 18.3919 18.3054 18.3102 18.283 18.2301C18.2606 18.1499 18.2493 18.0618 18.2493 17.9656C18.2493 17.7092 18.3391 17.4912 18.5186 17.3118C18.6981 17.1323 18.916 17.0425 19.1724 17.0425C19.2686 17.0425 19.3567 17.0537 19.4369 17.0762C19.517 17.0986 19.5987 17.1403 19.6821 17.2012C19.7654 17.2621 19.8263 17.3102 19.8648 17.3454C19.9032 17.3807 19.9721 17.4496 20.0715 17.5521C20.1709 17.6547 20.2302 17.7156 20.2494 17.7348C20.4609 17.5361 20.5667 17.3021 20.5667 17.0329ZM28.365 21.8503C28.9035 22.3888 29.1727 23.0427 29.1727 23.8119C29.1727 24.5812 28.9003 25.2318 28.3554 25.7639L26.9419 27.1678C26.4098 27.6998 25.7591 27.9659 24.9899 27.9659C24.2142 27.9659 23.5604 27.6934 23.0283 27.1486L21.0475 25.1581C20.5154 24.6261 20.2494 23.9754 20.2494 23.2061C20.2494 22.4177 20.5314 21.7478 21.0956 21.1965L20.2494 20.3503C19.6981 20.9144 19.0314 21.1965 18.2493 21.1965C17.4801 21.1965 16.8262 20.9272 16.2877 20.3888L14.2877 18.3887C13.7492 17.8502 13.48 17.1964 13.48 16.4271C13.48 15.6579 13.7524 15.0072 14.2973 14.4751L15.7108 13.0713C16.2429 12.5392 16.8935 12.2732 17.6628 12.2732C18.4384 12.2732 19.0923 12.5456 19.6244 13.0905L21.6052 15.0809C22.1373 15.613 22.4033 16.2637 22.4033 17.0329C22.4033 17.8214 22.1212 18.4913 21.5571 19.0426L22.4033 19.8887C22.9546 19.3246 23.6213 19.0426 24.4033 19.0426C25.1726 19.0426 25.8265 19.3118 26.3649 19.8503L28.365 21.8503Z" fill="white"/>
</g>
<defs>
<clipPath id="clip0_3483_63">
<rect width="16.0135" height="17.2312" fill="white" transform="matrix(1 0 0 -1 13.4734 29.3504)"/>
</clipPath>
</defs>
</svg>
