<svg width="11" height="18" viewBox="0 0 11 18" fill="none" xmlns="http://www.w3.org/2000/svg">
<g clip-path="url(#clip0_3483_79)">
<path d="M7.56085 8.58479C7.56085 8.58479 7.68105 8.46459 7.92144 8.2242C8.16183 7.98381 8.28202 7.52386 8.28202 6.84436C8.28202 6.16485 8.04163 5.58471 7.56085 5.10393C7.08007 4.62314 6.49993 4.38275 5.82042 4.38275C5.14092 4.38275 4.56077 4.62314 4.07999 5.10393C3.59921 5.58471 3.35882 6.16485 3.35882 6.84436C3.35882 7.52386 3.59921 8.104 4.07999 8.58479C4.56077 9.06557 5.14092 9.30596 5.82042 9.30596C6.49993 9.30596 7.08007 9.06557 7.56085 8.58479ZM10.7436 6.84436C10.7436 7.54309 10.6379 8.11682 10.4263 8.56555L6.92622 16.0081C6.82365 16.2196 6.67141 16.3863 6.46948 16.5081C6.26755 16.6299 6.0512 16.6908 5.82042 16.6908C5.58965 16.6908 5.37329 16.6299 5.17137 16.5081C4.96944 16.3863 4.8204 16.2196 4.72424 16.0081L1.21453 8.56555C1.00299 8.11682 0.897217 7.54309 0.897217 6.84436C0.897217 5.48535 1.378 4.32506 2.33956 3.3635C3.30113 2.40193 4.46141 1.92115 5.82042 1.92115C7.17943 1.92115 8.33972 2.40193 9.30128 3.3635C10.2628 4.32506 10.7436 5.48535 10.7436 6.84436Z" fill="#666666"/>
</g>
<defs>
<clipPath id="clip0_3483_79">
<rect width="9.85626" height="17.2312" fill="white" transform="matrix(1 0 0 -1 0.893311 17.9217)"/>
</clipPath>
</defs>
</svg>
