<svg width="19" height="18" viewBox="0 0 19 18" fill="none" xmlns="http://www.w3.org/2000/svg">
<path d="M13.8505 0.811127C12.9928 0.851971 12.2065 1.05619 11.4917 1.42379C10.777 1.79139 10.1745 2.32237 9.68437 3.01672C9.19423 2.32237 8.59178 1.79139 7.877 1.42379C7.16223 1.05619 6.37597 0.862183 5.51824 0.841761C4.66051 0.821339 3.84362 1.0664 3.06758 1.57696C2.29154 2.08751 1.66866 2.75124 1.19895 3.56812C0.72924 4.38501 0.494385 5.26316 0.494385 6.20258C0.494385 7.59129 0.882406 8.99021 1.65845 10.3993C2.43449 11.8085 3.55771 13.1665 5.02811 14.4736C6.41682 15.6989 7.92806 16.7609 9.56183 17.6594C9.64352 17.7003 9.72521 17.7003 9.8069 17.6594C11.4407 16.7609 12.9519 15.6989 14.3406 14.4736C15.811 13.1665 16.9342 11.8085 17.7103 10.3993C18.4863 8.99021 18.8743 7.59129 18.8743 6.20258C18.8743 5.26316 18.6395 4.38501 18.1698 3.56812C17.7001 2.75124 17.0772 2.08751 16.3012 1.57696C15.5251 1.0664 14.7082 0.811127 13.8505 0.811127ZM9.68437 17.0468C8.78579 16.5566 7.88722 15.9644 6.98864 15.27C5.35486 14.0447 4.04784 12.7785 3.06758 11.4715C1.76056 9.7152 1.10705 7.95889 1.10705 6.20258C1.10705 5.3857 1.31127 4.60965 1.71972 3.87446C2.12816 3.13926 2.67956 2.54701 3.37391 2.09772C4.06827 1.64844 4.80347 1.434 5.57951 1.45443C6.35555 1.47485 7.09075 1.67907 7.7851 2.06709C8.47946 2.45511 9.03086 2.9963 9.4393 3.69066C9.48015 3.81319 9.56183 3.87446 9.68437 3.87446C9.8069 3.87446 9.88859 3.81319 9.92943 3.69066C10.3379 2.9963 10.8893 2.45511 11.5836 2.06709C12.278 1.67907 13.0132 1.47485 13.7892 1.45443C14.5653 1.434 15.3005 1.64844 15.9948 2.09772C16.6892 2.54701 17.2406 3.13926 17.649 3.87446C18.0575 4.60965 18.2617 5.3857 18.2617 6.20258C18.2617 7.95889 17.6082 9.7152 16.3012 11.4715C15.3209 12.7785 14.0139 14.0447 12.3801 15.27C11.4815 15.9644 10.5829 16.5566 9.68437 17.0468Z" fill="#484848"/>
</svg>
