<svg width="12" height="13" viewBox="0 0 12 13" fill="none" xmlns="http://www.w3.org/2000/svg">
<path d="M11.7926 9.87889C11.7926 10.0296 11.7647 10.2263 11.7089 10.469C11.6531 10.7118 11.5945 10.9029 11.5331 11.0424C11.4159 11.3214 11.0755 11.6172 10.5119 11.9297C9.98737 12.2143 9.46839 12.3566 8.955 12.3566C8.80433 12.3566 8.65645 12.3468 8.51136 12.3273C8.36627 12.3077 8.20584 12.2729 8.03006 12.2226C7.85427 12.1724 7.72314 12.132 7.63664 12.1013C7.55014 12.0706 7.39529 12.0134 7.17208 11.9297C6.94886 11.846 6.81214 11.7957 6.76192 11.779C6.21504 11.5837 5.72676 11.3521 5.29708 11.0842C4.58837 10.6434 3.85176 10.0407 3.08725 9.27621C2.32275 8.5117 1.72007 7.77509 1.27922 7.06638C1.01136 6.6367 0.779776 6.14841 0.584464 5.60154C0.567723 5.55132 0.5175 5.4146 0.433794 5.19138C0.350089 4.96817 0.29289 4.81331 0.262198 4.72682C0.231506 4.64032 0.191049 4.50918 0.140826 4.3334C0.0906023 4.15762 0.0557251 3.99718 0.0361938 3.8521C0.0166626 3.70701 0.00689697 3.55913 0.00689697 3.40846C0.00689697 2.89506 0.149196 2.37609 0.433794 1.85154C0.746294 1.28792 1.04205 0.947517 1.32107 0.83033C1.46058 0.768946 1.65171 0.710352 1.89445 0.654549C2.1372 0.598744 2.33391 0.570843 2.48458 0.570843C2.5627 0.570843 2.62129 0.579213 2.66036 0.595955C2.7608 0.629436 2.90868 0.841491 3.104 1.23212C3.16538 1.33814 3.24908 1.48881 3.35511 1.68412C3.46114 1.87944 3.55879 2.05661 3.64808 2.21565C3.73737 2.37469 3.82386 2.52397 3.90757 2.66348C3.92431 2.6858 3.97314 2.75556 4.05405 2.87274C4.13497 2.98993 4.19495 3.08898 4.23402 3.1699C4.27308 3.25081 4.29261 3.33033 4.29261 3.40846C4.29261 3.52006 4.21309 3.65957 4.05405 3.82698C3.89501 3.9944 3.72202 4.14785 3.53508 4.28736C3.34814 4.42687 3.17514 4.57475 3.0161 4.731C2.85706 4.88725 2.77754 5.0156 2.77754 5.11605C2.77754 5.16627 2.7915 5.22905 2.8194 5.30439C2.8473 5.37972 2.87102 5.43692 2.89055 5.47598C2.91008 5.51504 2.94914 5.58201 3.00773 5.67687C3.06633 5.77174 3.09841 5.82475 3.104 5.83591C3.5281 6.60042 4.01359 7.25612 4.56047 7.80299C5.10734 8.34987 5.76304 8.83536 6.52754 9.25947C6.5387 9.26505 6.59172 9.29713 6.68658 9.35573C6.78145 9.41432 6.84841 9.45338 6.88748 9.47292C6.92654 9.49245 6.98374 9.51616 7.05907 9.54406C7.13441 9.57197 7.19719 9.58592 7.24741 9.58592C7.34786 9.58592 7.4762 9.5064 7.63245 9.34736C7.7887 9.18832 7.93658 9.01533 8.07609 8.82838C8.2156 8.64144 8.36906 8.46845 8.53647 8.30941C8.70388 8.15037 8.84339 8.07085 8.955 8.07085C9.03312 8.07085 9.11264 8.09038 9.19356 8.12944C9.27448 8.16851 9.37353 8.22849 9.49071 8.30941C9.6079 8.39033 9.67766 8.43915 9.69998 8.45589C9.83949 8.5396 9.98876 8.6261 10.1478 8.71538C10.3068 8.80467 10.484 8.90232 10.6793 9.00835C10.8746 9.11438 11.0253 9.19808 11.1313 9.25947C11.522 9.45478 11.734 9.60266 11.7675 9.70311C11.7842 9.74217 11.7926 9.80076 11.7926 9.87889Z" fill="white" fill-opacity="0.85"/>
</svg>
