<svg width="42" height="42" viewBox="0 0 42 42" fill="none" xmlns="http://www.w3.org/2000/svg">
<rect x="0.647461" y="0.631714" width="41.3549" height="41.3549" rx="9.18998" fill="#878787" fill-opacity="0.7"/>
<g clip-path="url(#clip0_3483_69)">
<path d="M17.6976 16.3501C17.6976 16.3501 17.7873 16.4398 17.9668 16.6193C18.1463 16.7988 18.236 17.145 18.236 17.6578C18.236 18.1707 18.0565 18.6066 17.6976 18.9655C17.3386 19.3245 16.9027 19.504 16.3898 19.504C15.877 19.504 15.4411 19.3245 15.0821 18.9655C14.7231 18.6066 14.5436 18.1707 14.5436 17.6578C14.5436 17.145 14.7231 16.7091 15.0821 16.3501C15.4411 15.9911 15.877 15.8116 16.3898 15.8116C16.9027 15.8116 17.3386 15.9911 17.6976 16.3501ZM28.0824 21.3502V25.658H14.5436V23.8118L17.6206 20.7348L19.1591 22.2733L24.0823 17.3501L28.0824 21.3502ZM29.0055 14.5808H13.6205C13.5372 14.5808 13.4651 14.6113 13.4042 14.6722C13.3433 14.7331 13.3128 14.8052 13.3128 14.8885V26.5811C13.3128 26.6645 13.3433 26.7366 13.4042 26.7975C13.4651 26.8584 13.5372 26.8888 13.6205 26.8888H29.0055C29.0889 26.8888 29.161 26.8584 29.2219 26.7975C29.2828 26.7366 29.3132 26.6645 29.3132 26.5811V14.8885C29.3132 14.8052 29.2828 14.7331 29.2219 14.6722C29.161 14.6113 29.0889 14.5808 29.0055 14.5808ZM30.5441 14.8885V26.5811C30.5441 27.0042 30.3934 27.3664 30.0921 27.6677C29.7908 27.969 29.4286 28.1196 29.0055 28.1196H13.6205C13.1974 28.1196 12.8353 27.969 12.534 27.6677C12.2327 27.3664 12.082 27.0042 12.082 26.5811V14.8885C12.082 14.4654 12.2327 14.1032 12.534 13.8019C12.8353 13.5007 13.1974 13.35 13.6205 13.35H29.0055C29.4286 13.35 29.7908 13.5007 30.0921 13.8019C30.3934 14.1032 30.5441 14.4654 30.5441 14.8885Z" fill="white"/>
</g>
<defs>
<clipPath id="clip0_3483_69">
<rect width="18.4719" height="17.2312" fill="white" transform="matrix(1 0 0 -1 12.0781 29.3503)"/>
</clipPath>
</defs>
</svg>
