<svg width="43" height="42" viewBox="0 0 43 42" fill="none" xmlns="http://www.w3.org/2000/svg">
<rect x="0.721436" y="0.631714" width="41.3549" height="41.3549" rx="9.18998" fill="#878787" fill-opacity="0.7"/>
<g clip-path="url(#clip0_3483_66)">
<path d="M30.0144 15.5039V25.9658C30.0144 26.235 29.8894 26.4241 29.6394 26.5331C29.5561 26.5651 29.4759 26.5812 29.399 26.5812C29.2259 26.5812 29.0817 26.5203 28.9663 26.3985L25.0912 22.5234V24.1196C25.0912 24.8824 24.8204 25.5347 24.2787 26.0763C23.737 26.618 23.0848 26.8889 22.3219 26.8889H15.5525C14.7897 26.8889 14.1374 26.618 13.5957 26.0763C13.054 25.5347 12.7832 24.8824 12.7832 24.1196V17.3501C12.7832 16.5873 13.054 15.935 13.5957 15.3934C14.1374 14.8517 14.7897 14.5808 15.5525 14.5808H22.3219C23.0848 14.5808 23.737 14.8517 24.2787 15.3934C24.8204 15.935 25.0912 16.5873 25.0912 17.3501V18.9367L28.9663 15.0712C29.0817 14.9494 29.2259 14.8885 29.399 14.8885C29.4759 14.8885 29.5561 14.9046 29.6394 14.9366C29.8894 15.0456 30.0144 15.2347 30.0144 15.5039Z" fill="white"/>
</g>
<defs>
<clipPath id="clip0_3483_66">
<rect width="17.2542" height="17.2312" fill="white" transform="matrix(1 0 0 -1 12.7715 29.3503)"/>
</clipPath>
</defs>
</svg>
